<?xml version="1.0" encoding="UTF-8" standalone="no"?><svg xmlns="http://www.w3.org/2000/svg" xmlns:xlink="http://www.w3.org/1999/xlink" contentStyleType="text/css" height="86px" preserveAspectRatio="none" style="width:650px;height:86px;background:#FFFFFF;" version="1.1" viewBox="0 0 650 86" width="650px" zoomAndPan="magnify"><defs/><g><!--MD5=[8fc3522a43f8c7199df5e09e5bb0188e]
entity user--><g id="elem_user"><ellipse cx="22" cy="14" fill="#F1F1F1" rx="8" ry="8" style="stroke:#181818;stroke-width:0.5;"/><path d="M22,22 L22,49 M9,30 L35,30 M22,49 L9,64 M22,49 L35,64 " fill="none" style="stroke:#181818;stroke-width:0.5;"/><text fill="#000000" font-family="sans-serif" font-size="14" lengthAdjust="spacing" textLength="32" x="6" y="78.4951">User</text></g><!--MD5=[97ccd76a35ae00951f9f6fc964721e46]
entity wiq--><g id="elem_wiq"><rect fill="#F1F1F1" height="62.5938" rx="2.5" ry="2.5" style="stroke:#181818;stroke-width:0.5;" width="108" x="170" y="12"/><rect fill="#F1F1F1" height="10" style="stroke:#181818;stroke-width:0.5;" width="15" x="258" y="17"/><rect fill="#F1F1F1" height="2" style="stroke:#181818;stroke-width:0.5;" width="4" x="256" y="19"/><rect fill="#F1F1F1" height="2" style="stroke:#181818;stroke-width:0.5;" width="4" x="256" y="23"/><text fill="#000000" font-family="sans-serif" font-size="14" font-style="italic" lengthAdjust="spacing" textLength="68" x="185" y="44.9951">«system»</text><text fill="#000000" font-family="sans-serif" font-size="14" lengthAdjust="spacing" textLength="32" x="203" y="61.292">WIQ!</text></g><!--MD5=[e2307af040e3f87d22824e7603ca28ec]
entity api--><g id="elem_api"><rect fill="#F1F1F1" height="62.5938" rx="2.5" ry="2.5" style="stroke:#181818;stroke-width:0.5;" width="102" x="542" y="12"/><rect fill="#F1F1F1" height="10" style="stroke:#181818;stroke-width:0.5;" width="15" x="624" y="17"/><rect fill="#F1F1F1" height="2" style="stroke:#181818;stroke-width:0.5;" width="4" x="622" y="19"/><rect fill="#F1F1F1" height="2" style="stroke:#181818;stroke-width:0.5;" width="4" x="622" y="23"/><text fill="#000000" font-family="sans-serif" font-size="14" font-style="italic" lengthAdjust="spacing" textLength="62" x="557" y="44.9951">«extern»</text><text fill="#000000" font-family="sans-serif" font-size="14" lengthAdjust="spacing" textLength="57" x="559.5" y="61.292">Wikidata</text></g><!--MD5=[6cd33e9359d07407233175ce6d91ec2a]
link user to wiq--><g id="link_user_wiq"><path d="M38.12,49.98 C50.98,54.79 69.58,60.94 86.5,63.5 C112.11,67.38 140.42,64.49 164.66,59.82 " fill="none" id="user-to-wiq" style="stroke:#181818;stroke-width:1.0;"/><polygon fill="#181818" points="169.77,58.8,160.1652,56.6212,164.8649,59.7696,161.7165,64.4694,169.77,58.8" style="stroke:#181818;stroke-width:1.0;"/><text fill="#000000" font-family="sans-serif" font-size="13" lengthAdjust="spacing" textLength="33" x="87.5" y="59.5669">plays</text></g><!--MD5=[5693cf35d2657847ba95af42e1592b2c]
reverse link user to wiq--><g id="link_user_wiq"><path d="M43.45,43.5 C73.26,43.5 128.22,43.5 169.7,43.5 " fill="none" id="user-backto-wiq" style="stroke:#181818;stroke-width:1.0;stroke-dasharray:7.0,7.0;"/><polygon fill="#181818" points="38.19,43.5,47.19,47.5,43.19,43.5,47.19,39.5,38.19,43.5" style="stroke:#181818;stroke-width:1.0;"/><text fill="#000000" font-family="sans-serif" font-size="13" lengthAdjust="spacing" textLength="95" x="56.5" y="36.5669">asks questions</text></g><!--MD5=[8d05012eae3f2362e3568d0a15fb6c09]
link wiq to api--><g id="link_wiq_api"><path d="M278.05,43.5 C347.12,43.5 466.11,43.5 536.39,43.5 " fill="none" id="wiq-to-api" style="stroke:#181818;stroke-width:1.0;"/><polygon fill="#181818" points="541.78,43.5,532.78,39.5,536.78,43.5,532.78,47.5,541.78,43.5" style="stroke:#181818;stroke-width:1.0;"/><text fill="#000000" font-family="sans-serif" font-size="13" lengthAdjust="spacing" textLength="227" x="296.5" y="36.5669">request data to generate questions</text></g><!--MD5=[5d0bccf1a8798a28ecdab50d6fd395a7]
reverse link wiq to api--><g id="link_wiq_api"><path d="M283.25,53.51 C309.58,57.48 341,61.55 369.5,63.5 C405.42,65.96 414.59,66.01 450.5,63.5 C480.9,61.38 514.69,56.74 541.73,52.46 " fill="none" id="wiq-backto-api" style="stroke:#181818;stroke-width:1.0;stroke-dasharray:7.0,7.0;"/><polygon fill="#181818" points="278.06,52.72,286.3656,58.0132,283.0045,53.4631,287.5545,50.102,278.06,52.72" style="stroke:#181818;stroke-width:1.0;"/><text fill="#000000" font-family="sans-serif" font-size="13" lengthAdjust="spacing" textLength="79" x="370.5" y="59.5669">returns data</text></g><!--MD5=[6bcc4cb54589a7a56d4fa005aa8b60ac]
@startuml
Actor User as user

component wiq as "WIQ!"<<system>>

component api as "Wikidata"<<extern>>

user -right-> wiq: plays
wiq -left.> user: asks questions
wiq -right-> api: request data to generate questions
api -left.> wiq: returns data
@enduml

PlantUML version 1.2022.7(Mon Aug 22 17:01:30 UTC 2022)
(GPL source distribution)
Java Runtime: OpenJDK Runtime Environment
JVM: OpenJDK 64-Bit Server VM
Default Encoding: UTF-8
Language: en
Country: null
--></g></svg>